<svg width="454" height="596" viewBox="0 0 454 596" fill="none" xmlns="http://www.w3.org/2000/svg">
<mask id="mask0_1091_1421" style="mask-type:luminance" maskUnits="userSpaceOnUse" x="0" y="0" width="454" height="596">
<path d="M36.4095 0.237495C35.8726 0.435057 35.3966 0.813368 35.0799 1.33039C17.0973 29.7646 5.08306 63.1442 1.27683 99.586C1.23698 99.6638 1.23698 99.7437 1.23698 99.8235C-1.63814 127.68 0.582688 154.824 7.02497 180.135C7.22419 180.95 7.7988 181.646 8.57262 182.043C21.4803 188.203 34.9604 193.846 48.9585 198.874C50.8606 199.607 52.8046 200.303 54.7465 200.977C100.763 216.875 146.578 224.424 188.709 224.344C191.305 224.344 192.513 227.463 190.651 229.254C181.948 237.44 173.482 246.341 165.471 255.938C160.14 262.157 155.025 268.752 150.087 275.608C144.676 283.079 139.62 290.631 134.963 298.26C133.532 300.603 132.165 302.949 130.798 305.273C127.962 310.261 125.324 315.168 122.848 320.116C117.97 329.693 113.748 339.25 110.059 348.828C109.823 349.366 109.703 349.88 109.466 350.376C108.038 349.92 106.631 349.366 105.242 348.788C88.9459 341.894 76.5164 326.394 72.4313 307.339C71.9343 305.074 69.0214 304.34 67.5325 306.089C63.5669 310.858 60.4548 316.579 58.5527 322.957C56.3927 330.509 56.0739 338.157 57.4622 345.192C60.3185 360.473 70.7662 373.247 85.794 377.718C89.422 378.811 93.1087 379.288 96.7178 379.328C98.5401 379.328 99.8298 381.154 99.4125 382.943C98.2046 387.85 97.1938 392.72 96.3403 397.545C96.3004 397.588 96.3004 397.588 96.3004 397.625C89.638 434.622 92.3348 469.256 104.567 496.915C104.567 496.955 104.567 496.974 104.607 496.974C112.043 513.802 123.026 528.029 137.559 538.62C137.953 538.939 138.391 539.195 138.806 539.475C140.591 548.475 143.546 556.999 147.549 564.868C148.6 566.934 146.778 569.317 144.477 568.842C138.49 567.67 132.165 567.014 125.563 567.014C99.7502 567.014 77.4056 576.909 66.4042 591.314C65.016 593.182 66.3644 595.904 68.7027 595.904H186.19C188.252 595.904 189.602 593.777 188.749 591.911C186.071 586.249 184.586 579.79 184.586 573.014C184.586 567.411 185.597 562.066 187.419 557.197C193.111 542.018 206.671 531.369 222.531 531.369C224.475 531.369 226.417 531.486 228.319 531.846C228.359 531.846 228.42 531.846 228.459 531.924C234.187 532.859 239.463 535.223 244.022 538.62C244.022 538.66 244.041 538.66 244.041 538.66C247.474 541.264 250.504 544.502 252.903 548.117C257.661 555.093 260.459 563.695 260.459 573.014C260.459 579.79 258.97 586.249 256.294 591.911C255.441 593.777 256.789 595.904 258.853 595.904H376.34C378.679 595.904 380.027 593.182 378.599 591.314C367.635 576.909 345.293 567.014 319.517 567.014C312.916 567.014 306.532 567.67 300.566 568.842C298.265 569.317 296.481 566.934 297.531 564.868C301.141 557.735 303.896 550.106 305.719 542.018C336.925 536.434 369.976 520.896 400.824 496.974C400.824 496.955 400.864 496.955 400.902 496.915C419.083 482.766 436.531 465.698 452.469 446.009C452.748 445.65 452.945 445.253 453.025 444.876V443.626C452.629 442.094 451.043 440.942 449.238 441.598C424.217 450.797 399.731 454.811 377.192 453.044C357.366 451.533 339.146 445.532 323.206 434.662C309.267 425.164 298.108 412.588 289.72 397.625C289.72 397.588 289.68 397.588 289.68 397.545C287.063 392.917 284.743 388.088 282.682 383.023C281.99 381.314 283.139 379.445 284.982 379.128C308.376 375.114 326.023 353.002 325.385 326.772C325.268 320.353 324.039 314.195 321.937 308.552C321.006 306.049 317.576 306.009 316.605 308.512C311.626 321.448 301.833 333.012 288.235 340.482C283.179 343.243 277.982 345.271 272.729 346.562C271.383 337.999 270.59 329.076 270.41 319.878C270.33 319.3 270.33 318.746 270.33 318.17C270.213 311.671 270.37 305.034 270.785 298.26C271.263 291.028 271.997 283.617 273.088 276.106C274.751 264.382 277.131 252.421 280.344 240.242C283.219 229.134 286.727 217.848 290.911 206.541C291.861 204.019 292.792 201.436 293.805 198.874C294.26 197.661 294.776 196.408 295.271 195.177C299.276 185.162 303.777 175.149 308.755 165.057C315.474 151.625 323.026 138.153 331.454 124.859C332.106 123.825 332.069 122.535 331.335 121.56C325.505 114.01 318.903 106.679 311.588 99.586C264.223 53.5078 186.805 17.4443 96.1809 4.70997C79.0728 2.34553 62.2205 0.813368 45.6849 0.237495C42.9692 0.117697 40.2954 0.0378311 37.6153 0C37.1812 0 36.8037 0.0777638 36.4095 0.237495ZM182.881 113.613C183.89 108.546 185.911 103.798 188.669 99.586C194.537 90.6621 203.875 84.1678 214.6 82.1396C231.928 78.8609 247.711 86.6121 256.254 99.586C260.537 106.022 262.976 113.693 262.976 121.938C262.976 144.351 244.913 162.531 222.531 162.531C197.452 162.531 177.666 139.622 182.881 113.613Z" fill="white"/>
</mask>
<g mask="url(#mask0_1091_1421)">
<path d="M-3.06348 -1.18555H454.103V597.806H-3.06348V-1.18555Z" fill="url(#paint0_linear_1091_1421)"/>
</g>
<path d="M222.52 138.449C213.531 138.449 206.231 131.058 206.231 121.959C206.231 112.859 213.531 105.467 222.52 105.467C231.508 105.467 238.809 112.859 238.809 121.959C238.809 131.058 231.508 138.449 222.52 138.449ZM255.901 99.5844C247.444 86.6104 231.821 78.8614 214.669 82.14C204.053 84.1661 194.81 90.6646 189.001 99.5844C186.272 103.798 184.271 108.546 183.27 113.613C178.11 139.622 197.695 162.531 222.52 162.531C244.675 162.531 262.554 144.351 262.554 121.938C262.554 113.693 260.14 106.022 255.901 99.5844Z" fill="white"/>
<path d="M238.81 121.958C238.81 131.059 231.509 138.448 222.521 138.448C213.533 138.448 206.234 131.059 206.234 121.958C206.234 112.858 213.533 105.466 222.521 105.466C231.509 105.466 238.81 112.858 238.81 121.958Z" fill="#121212"/>
<defs>
<linearGradient id="paint0_linear_1091_1421" x1="-1.62677" y1="75.8072" x2="459.892" y2="523.657" gradientUnits="userSpaceOnUse">
<stop stop-color="#84CD9D"/>
<stop offset="1" stop-color="#9495EA"/>
</linearGradient>
</defs>
</svg>
